#N canvas 691 90 851 841 16;
#X obj 24 510 catch~ \$0-output;
#X obj 24 550 /~ 5;
#X obj 24 590 dac~ 1 2;
#X obj 229 508 tgl 24 0 empty empty empty 0 -12 0 16 #fcfcfc #000000 #000000 0 1;
#X obj 229 537 metro 200;
#X obj 88 52 bng 24 250 50 0 empty empty empty 0 -12 0 16 #fcfcfc #000000 #000000;
#X obj 87 155 line~;
#X obj 87 190 sqrt~;
#X obj 87 248 -~ 0.25;
#X obj 87 277 cos~;
#X obj 85 396 throw~ \$0-output;
#X obj 87 219 *~ 20;
#X obj 87 314 lop~ 1000;
#X obj 176 161 hsl 204 24 0 127 0 0 empty empty empty -2 -12 0 16 #fcfcfc #000000 #000000 0 1;
#X obj 156 356 *~;
#X obj 174 204 phasor~ 65;
#X msg 88 121 0 \, 1 350 1;
#X obj 174 233 lop~ 100;
#X obj 174 262 env~ 250 50;
#X connect 0 0 1 0;
#X connect 1 0 2 0;
#X connect 1 0 2 1;
#X connect 3 0 4 0;
#X connect 5 0 16 0;
#X connect 6 0 7 0;
#X connect 7 0 11 0;
#X connect 8 0 9 0;
#X connect 9 0 12 0;
#X connect 11 0 8 0;
#X connect 12 0 14 0;
#X connect 13 0 15 0;
#X connect 14 0 10 0;
#X connect 15 0 17 0;
#X connect 16 0 6 0;
#X connect 17 0 18 0;
#X connect 18 0 14 1;
