#N canvas -9 0 2560 1464 12;
#X obj 78 72 bng 19 250 50 0 empty empty empty 0 -10 0 12 #fcfcfc #000000 #000000;
#X msg 68 438 0.2 0 \, 0 1 0;
#X obj 68 462 vline~;
#X msg 539 443 0.05 4 \, 0 100 4;
#X msg 191 440 250 0 \, 120 10 0;
#X obj 78 44 metro 400;
#X msg 338 442 1 4 \, 0.9 65 4 \, 0 360 69;
#X obj 191 464 vline~;
#X obj 338 466 vline~;
#X obj 539 469 vline~;
#X obj 191 488 osc~;
#X obj 338 490 pow~ 1.5;
#X obj 191 549 *~;
#X obj 539 649 *~;
#X obj 465 500 noise~;
#X obj 465 524 lop~ 300;
#X obj 323 693 dac~;
#X obj 78 20 tgl 19 0 empty empty empty 0 -10 0 12 #fcfcfc #000000 #000000 0 1;
#X connect 0 0 1 0;
#X connect 0 0 6 0;
#X connect 0 0 4 0;
#X connect 0 0 3 0;
#X connect 1 0 2 0;
#X connect 2 0 16 0;
#X connect 2 0 16 1;
#X connect 3 0 9 0;
#X connect 4 0 7 0;
#X connect 5 0 0 0;
#X connect 6 0 8 0;
#X connect 7 0 10 0;
#X connect 8 0 11 0;
#X connect 9 0 13 1;
#X connect 10 0 12 0;
#X connect 11 0 12 1;
#X connect 12 0 16 0;
#X connect 12 0 16 1;
#X connect 13 0 16 1;
#X connect 13 0 16 0;
#X connect 14 0 15 0;
#X connect 15 0 13 0;
#X connect 17 0 5 0;
