#N canvas 4 23 2560 1464 12;
#X obj 78 335 bng 19 250 50 0 empty empty empty 0 -10 0 12 #fcfcfc #000000 #000000;
#X msg 78 362 1 0 \, 0 11 0 \, 1 0 11 \, 0 12 11 \, 1 0 23 \, 0 8 23 \, 1 0 31 \, 0 50 31, f 62;
#X obj 77 395 vline~;
#X obj 76 433 pow~ 3;
#X obj 158 433 noise~;
#X obj 78 476 *~;
#X obj 78 550 *~ 0.7;
#X obj 115 589 bp~ 1000 5;
#X obj 82 635 lop~ 3000;
#X msg 468 432 1 36 \, 0 440 36;
#X obj 471 482 vline~;
#X obj 470 577 *~;
#X obj 475 628 bp~ 1100 3;
#X obj 462 921 dac~;
#X obj 479 529 pow~ 1.8;
#X obj 471 785 *~ 0.5;
#X obj 650 578 hsl 204 24 0 100 0 0 empty empty empty -2 -12 0 16 #fcfcfc #000000 #000000 0 1;
#X obj 647 607 mtof;
#X obj 647 694 lop~ 2000;
#X obj 647 636 phasor~;
#X obj 647 665 expr~ ($v1 > 0.5) * 1.6 - 1;
#X connect 0 0 1 0;
#X connect 0 0 9 0;
#X connect 1 0 2 0;
#X connect 2 0 3 0;
#X connect 3 0 5 0;
#X connect 4 0 5 1;
#X connect 4 0 11 1;
#X connect 5 0 6 0;
#X connect 6 0 7 0;
#X connect 6 0 8 0;
#X connect 7 0 8 0;
#X connect 8 0 15 0;
#X connect 9 0 10 0;
#X connect 10 0 14 0;
#X connect 11 0 12 0;
#X connect 12 0 15 0;
#X connect 14 0 11 0;
#X connect 15 0 13 0;
#X connect 15 0 13 1;
#X connect 16 0 17 0;
#X connect 17 0 19 0;
#X connect 18 0 11 1;
#X connect 19 0 20 0;
#X connect 20 0 18 0;
