#N canvas -9 0 1276 1451 12;
#X obj 18 17 bng 19 250 50 0 empty empty empty 0 -10 0 12 #fcfcfc #000000 #000000;
#X msg 18 44 1 0 \, 0 11 0 \, 1 0 11 \, 0 12 11 \, 1 0 23 \, 0 8 23 \, 1 0 31 \, 0 50 31, f 62;
#X obj 17 77 vline~;
#X obj 16 115 pow~ 3;
#X obj 98 115 noise~;
#X obj 18 158 *~;
#X obj 18 232 *~ 0.7;
#X obj 55 271 bp~ 1000 5;
#X obj 22 317 lop~ 3000;
#X obj 71 395 hip~ 600;
#X msg 408 114 1 36 \, 0 440 36;
#X obj 411 164 vline~;
#X obj 410 259 *~;
#X obj 415 310 bp~ 1100 3;
#X obj 411 467 *~ 0.5;
#X obj 402 603 dac~;
#X obj 419 211 pow~ 1.8;
#X connect 0 0 1 0;
#X connect 0 0 10 0;
#X connect 1 0 2 0;
#X connect 2 0 3 0;
#X connect 3 0 5 0;
#X connect 4 0 5 1;
#X connect 4 0 12 1;
#X connect 5 0 6 0;
#X connect 6 0 7 0;
#X connect 6 0 8 0;
#X connect 7 0 8 0;
#X connect 8 0 14 0;
#X connect 10 0 11 0;
#X connect 11 0 16 0;
#X connect 12 0 13 0;
#X connect 13 0 14 0;
#X connect 14 0 15 0;
#X connect 14 0 15 1;
#X connect 16 0 12 0;
