#N canvas -9 0 1276 1451 12;
#X obj 692 1374 dac~;
#N canvas 692 208 450 300 highhat 0;
#X obj 20 10 inlet~;
#X obj 19 44 phasor~;
#X obj 16 81 expr~ if($v1>0.5 \, 1 \, 0);
#X obj 22 130 outlet~;
#X connect 0 0 1 0;
#X connect 1 0 2 0;
#X connect 2 0 3 0;
#X restore 173 180 pd highhat;
#X obj 174 143 *~ 2;
#N canvas 692 208 450 300 highhat 0;
#X obj 20 10 inlet~;
#X obj 19 44 phasor~;
#X obj 16 81 expr~ if($v1>0.5 \, 1 \, 0);
#X obj 22 130 outlet~;
#X connect 0 0 1 0;
#X connect 1 0 2 0;
#X connect 2 0 3 0;
#X restore 172 254 pd highhat;
#N canvas 692 208 450 300 highhat 0;
#X obj 20 10 inlet~;
#X obj 19 44 phasor~;
#X obj 16 81 expr~ if($v1>0.5 \, 1 \, 0);
#X obj 22 130 outlet~;
#X connect 0 0 1 0;
#X connect 1 0 2 0;
#X connect 2 0 3 0;
#X restore 171 332 pd highhat;
#N canvas 692 208 450 300 highhat 0;
#X obj 20 10 inlet~;
#X obj 19 44 phasor~;
#X obj 16 81 expr~ if($v1>0.5 \, 1 \, 0);
#X obj 22 130 outlet~;
#X connect 0 0 1 0;
#X connect 1 0 2 0;
#X connect 2 0 3 0;
#X restore 170 406 pd highhat;
#N canvas 692 208 450 300 highhat 0;
#X obj 20 10 inlet~;
#X obj 19 44 phasor~;
#X obj 16 81 expr~ if($v1>0.5 \, 1 \, 0);
#X obj 22 130 outlet~;
#X connect 0 0 1 0;
#X connect 1 0 2 0;
#X connect 2 0 3 0;
#X restore 167 490 pd highhat;
#N canvas 692 208 450 300 highhat 0;
#X obj 20 10 inlet~;
#X obj 19 44 phasor~;
#X obj 16 81 expr~ if($v1>0.5 \, 1 \, 0);
#X obj 22 130 outlet~;
#X connect 0 0 1 0;
#X connect 1 0 2 0;
#X connect 2 0 3 0;
#X restore 166 564 pd highhat;
#X obj 173 217 *~ 3;
#X obj 325 370 bp~ 10000 20;
#X obj 25 21 loadbang;
#X msg 27 45 40;
#X obj 494 407 hip~ 7000;
#X obj 494 435 hip~ 7000;
#X obj 688 46 bng 19 250 50 0 empty empty empty 0 -10 0 12 #fcfcfc #000000 #000000;
#X msg 688 70 1 2 \, 0 90 2;
#X obj 686 110 vline~;
#X obj 682 146 pow~ 4;
#X obj 759 633 *~;
#X obj 792 49 bng 19 250 50 0 empty empty empty 0 -10 0 12 #fcfcfc #000000 #000000;
#X obj 790 113 vline~;
#X obj 786 149 pow~ 4;
#X msg 792 73 1 2 \, 0.7 540 2 \, 0 90 542;
#X obj 494 464 hip~ 7000;
#X obj 494 492 hip~ 7000;
#X obj 172 295 *~ 4.16;
#X obj 171 369 *~ 5.43;
#X obj 168 453 *~ 6.79;
#X obj 167 527 *~ 8.12;
#X obj 672 968 *~ 0.4;
#X connect 1 0 9 0;
#X connect 2 0 1 0;
#X connect 3 0 9 0;
#X connect 4 0 9 0;
#X connect 5 0 9 0;
#X connect 6 0 9 0;
#X connect 7 0 9 0;
#X connect 8 0 3 0;
#X connect 9 0 12 0;
#X connect 10 0 11 0;
#X connect 11 0 2 0;
#X connect 11 0 8 0;
#X connect 11 0 25 0;
#X connect 11 0 26 0;
#X connect 11 0 27 0;
#X connect 11 0 28 0;
#X connect 12 0 13 0;
#X connect 13 0 23 0;
#X connect 14 0 15 0;
#X connect 15 0 16 0;
#X connect 16 0 17 0;
#X connect 17 0 18 1;
#X connect 18 0 0 0;
#X connect 18 0 29 0;
#X connect 19 0 22 0;
#X connect 20 0 21 0;
#X connect 21 0 18 1;
#X connect 22 0 20 0;
#X connect 23 0 24 0;
#X connect 24 0 18 0;
#X connect 25 0 4 0;
#X connect 26 0 5 0;
#X connect 27 0 6 0;
#X connect 28 0 7 0;
#X connect 29 0 0 0;
#X connect 29 0 0 1;
