#N canvas -9 0 2560 1464 16;
#N canvas 958 241 915 617 bass_drum 0;
#X obj 87 155 line~;
#X obj 87 190 sqrt~;
#X obj 87 248 -~ 0.25;
#X obj 87 277 cos~;
#X obj 87 219 *~ 20;
#X obj 87 314 lop~ 1000;
#X obj 156 356 *~;
#X obj 174 204 phasor~ 65;
#X msg 88 121 0 \, 1 350 1;
#X obj 174 233 lop~ 100;
#X obj 174 262 env~ 250 50;
#X obj 82 48 inlet;
#X obj 240 57 inlet;
#X obj 45 101 bng 24 250 50 0 empty empty empty 0 -12 0 16 #fcfcfc #000000 #000000;
#X floatatom 277 107 5 0 0 0 - - - 0;
#X obj 148 429 outlet~;
#X connect 0 0 1 0;
#X connect 1 0 4 0;
#X connect 2 0 3 0;
#X connect 3 0 5 0;
#X connect 4 0 2 0;
#X connect 5 0 6 0;
#X connect 6 0 15 0;
#X connect 7 0 9 0;
#X connect 8 0 0 0;
#X connect 9 0 10 0;
#X connect 10 0 6 1;
#X connect 11 0 8 0;
#X connect 11 0 13 0;
#X connect 12 0 7 0;
#X connect 12 0 14 0;
#X restore 100 196 pd bass_drum;
#X obj 220 162 hsl 204 24 0 127 0 0 empty empty empty -2 -12 0 16 #fcfcfc #000000 #000000 0 1;
#X obj 101 156 bng 24 250 50 0 empty empty empty 0 -12 0 16 #fcfcfc #000000 #000000;
#X obj 100 85 tgl 24 0 empty empty empty 0 -12 0 16 #fcfcfc #000000 #000000 0 1;
#X obj 100 114 metro 500;
#X obj 100 1190 /~ 5;
#X obj 100 1230 dac~ 1 2;
#X obj 1023 143 rev1~;
#X obj 130 265 hsl 204 24 0 1 0 0 empty empty empty -2 -12 0 16 #fcfcfc #000000 #000000 0 1;
#X obj 100 297 *~;
#X obj 1088 153 hsl 204 24 0 1 0 0 empty empty empty -2 -12 0 16 #fcfcfc #000000 #000000 0 1;
#X obj 1024 177 *~;
#X obj 1046 107 tgl 24 0 empty empty empty 0 -12 0 16 #fcfcfc #000000 #000000 0 1;
#N canvas 192 192 643 680 snare_drum 0;
#X obj 200 144 t b b;
#X obj 197 359 +~;
#X obj 248 204 line~;
#X obj 368 188 noise~;
#X obj 368 217 hip~ 3000;
#X obj 248 232 pow~ 4;
#X obj 245 323 *~;
#X msg 247 175 1 \, 0 240;
#X obj 233 275 lop~ 2000;
#X obj 371 294 bp~ 1 2.5;
#X obj 191 422 outlet~;
#X obj 197 94 inlet;
#X obj 482 248 inlet;
#X connect 0 1 7 0;
#X connect 1 0 10 0;
#X connect 2 0 5 0;
#X connect 3 0 4 0;
#X connect 4 0 9 0;
#X connect 5 0 8 0;
#X connect 6 0 1 1;
#X connect 7 0 2 0;
#X connect 8 0 6 0;
#X connect 9 0 6 1;
#X connect 11 0 0 0;
#X connect 12 0 9 1;
#X restore 556 182 pd snare_drum;
#X obj 556 153 bng 24 250 50 0 empty empty empty 0 -12 0 16 #fcfcfc #000000 #000000;
#X obj 555 82 tgl 24 0 empty empty empty 0 -12 0 16 #fcfcfc #000000 #000000 0 1;
#X obj 555 111 metro 500;
#X obj 586 249 hsl 204 24 0 1 0 0 empty empty empty -2 -12 0 16 #fcfcfc #000000 #000000 0 1;
#X obj 556 282 *~;
#X obj 686 150 hsl 204 24 1000 6000 0 0 empty empty empty -2 -12 0 16 #fcfcfc #000000 #000000 0 1;
#N canvas 952 0 958 956 UFO_sound 0;
#X obj 87 161 line~;
#X obj 87 190 sqrt~;
#X obj 87 248 -~ 0.25;
#X obj 87 277 cos~;
#X obj 86 323 lop~ 1000;
#X msg 87 132 0 \, 1 400;
#X obj 86 406 *~;
#X obj 213 273 mtof;
#X obj 87 219 *~ 120;
#X obj 213 360 lop~ 2000;
#X obj 213 302 phasor~;
#X obj 213 331 expr~ ($v1 > 0.5) * 1.6 - 1;
#X obj 88 64 inlet;
#X obj 222 213 inlet;
#X obj 86 435 outlet~;
#X connect 0 0 1 0;
#X connect 1 0 8 0;
#X connect 2 0 3 0;
#X connect 3 0 4 0;
#X connect 4 0 6 0;
#X connect 5 0 0 0;
#X connect 6 0 14 0;
#X connect 7 0 10 0;
#X connect 8 0 2 0;
#X connect 9 0 6 1;
#X connect 10 0 11 0;
#X connect 11 0 9 0;
#X connect 12 0 5 0;
#X connect 13 0 7 0;
#X restore 98 546 pd UFO_sound;
#X obj 218 513 hsl 204 24 100 150 0 0 empty empty empty -2 -12 0 16 #fcfcfc #000000 #000000 0 1;
#X obj 98 507 bng 24 250 50 0 empty empty empty 0 -12 0 16 #fcfcfc #000000 #000000;
#X obj 98 436 tgl 24 0 empty empty empty 0 -12 0 16 #fcfcfc #000000 #000000 0 1;
#X obj 98 465 metro 500;
#X obj 128 604 hsl 204 24 0 1 0 0 empty empty empty -2 -12 0 16 #fcfcfc #000000 #000000 0 1;
#X obj 98 634 *~;
#N canvas 224 224 450 431 laser_sound 0;
#X msg 87 132 0 \, 1 200;
#X obj 87 161 line~;
#X obj 87 190 sqrt~;
#X obj 87 248 -~ 0.25;
#X obj 87 277 cos~;
#X obj 87 219 *~ 120;
#X obj 79 76 inlet;
#X obj 87 306 outlet~;
#X connect 0 0 1 0;
#X connect 1 0 2 0;
#X connect 2 0 5 0;
#X connect 3 0 4 0;
#X connect 4 0 7 0;
#X connect 5 0 3 0;
#X connect 6 0 0 0;
#X restore 556 535 pd laser_sound;
#X obj 556 504 bng 24 250 50 0 empty empty empty 0 -12 0 16 #fcfcfc #000000 #000000;
#X obj 556 441 tgl 24 0 empty empty empty 0 -12 0 16 #fcfcfc #000000 #000000 0 1;
#X obj 556 470 metro 500;
#X obj 557 626 *~;
#X obj 587 595 hsl 204 24 0 1 0 0 empty empty empty -2 -12 0 16 #fcfcfc #000000 #000000 0 1;
#N canvas 64 64 827 814 clap 0;
#X msg 78 362 1 0 \, 0 11 0 \, 1 0 11 \, 0 12 11 \, 1 0 23 \, 0 8 23 \, 1 0 31 \, 0 50 31, f 62;
#X obj 77 395 vline~;
#X obj 76 433 pow~ 3;
#X obj 158 433 noise~;
#X obj 78 476 *~;
#X obj 78 550 *~ 0.7;
#X obj 115 589 bp~ 1000 5;
#X obj 82 635 lop~ 3000;
#X msg 231 407 1 36 \, 0 440 36;
#X obj 233 456 vline~;
#X obj 221 554 *~;
#X obj 226 605 bp~ 1100 3;
#X obj 230 506 pow~ 1.8;
#X obj 167 667 *~ 0.5;
#X obj 398 584 mtof;
#X obj 398 671 lop~ 2000;
#X obj 398 613 phasor~;
#X obj 78 284 inlet;
#X obj 429 488 inlet;
#X obj 167 696 outlet~;
#X obj 398 642 expr~ ($v1 > 0.5) * 1.6 - 1;
#X obj 142 285 inlet;
#X connect 0 0 1 0;
#X connect 1 0 2 0;
#X connect 2 0 4 0;
#X connect 3 0 4 1;
#X connect 3 0 10 1;
#X connect 4 0 5 0;
#X connect 5 0 6 0;
#X connect 5 0 7 0;
#X connect 6 0 7 0;
#X connect 7 0 13 0;
#X connect 8 0 9 0;
#X connect 9 0 12 0;
#X connect 10 0 11 0;
#X connect 11 0 13 0;
#X connect 12 0 10 0;
#X connect 13 0 19 0;
#X connect 14 0 16 0;
#X connect 15 0 10 1;
#X connect 16 0 20 0;
#X connect 17 0 0 0;
#X connect 18 0 14 0;
#X connect 20 0 15 0;
#X connect 21 0 8 0;
#X restore 96 890 pd clap;
#X obj 96 854 bng 24 250 50 0 empty empty empty 0 -12 0 16 #fcfcfc #000000 #000000;
#X obj 96 788 tgl 24 0 empty empty empty 0 -12 0 16 #fcfcfc #000000 #000000 0 1;
#X obj 96 817 metro 500;
#X obj 166 856 hsl 204 24 0 100 0 0 empty empty empty -2 -12 0 16 #fcfcfc #000000 #000000 0 1;
#X obj 97 992 *~;
#X obj 127 956 hsl 204 24 0 1 0 0 empty empty empty -2 -12 0 16 #fcfcfc #000000 #000000 0 1;
#N canvas 984 301 766 525 mixer 0;
#X obj 504 93 inlet;
#X obj 155 171 *~;
#X obj 338 268 *~;
#X obj 314 418 outlet~;
#X obj 180 103 inlet~;
#X obj 342 92 inlet~;
#X obj 478 218 expr 1-$f1;
#X obj 299 338 +~;
#X connect 0 0 1 1;
#X connect 0 0 6 0;
#X connect 1 0 7 0;
#X connect 2 0 7 1;
#X connect 4 0 1 0;
#X connect 5 0 2 0;
#X connect 6 0 2 1;
#X connect 7 0 3 0;
#X restore 986 233 pd mixer;
#X obj 1066 194 hsl 204 24 0 1 0 0 empty empty empty -2 -12 0 16 #fcfcfc #000000 #000000 0 1;
#N canvas -81 610 2560 1464 key 0;
#X obj 13 11 key;
#X obj 13 46 select 113;
#X obj 13 80 outlet;
#X connect 0 0 1 0;
#X connect 1 0 2 0;
#X restore 12 114 pd key q;
#N canvas 304 304 450 300 key 0;
#X obj 121 137 key;
#X obj 121 171 select 119;
#X obj 121 200 outlet;
#X connect 0 0 1 0;
#X connect 1 0 2 0;
#X restore 467 111 pd key w;
#N canvas 342 342 450 300 key 0;
#X obj 17 13 key;
#X obj 17 42 select 101;
#X obj 17 71 outlet;
#X connect 0 0 1 0;
#X connect 1 0 2 0;
#X restore 8 466 pd key e;
#N canvas 38 38 450 300 key 0;
#X obj 17 13 key;
#X obj 17 71 outlet;
#X obj 17 42 select 114;
#X connect 0 0 2 0;
#X connect 2 0 1 0;
#X restore 467 470 pd key r;
#N canvas 76 76 450 300 key 0;
#X obj 17 13 key;
#X obj 17 71 outlet;
#X obj 17 42 select 116;
#X connect 0 0 2 0;
#X connect 2 0 1 0;
#X restore 7 817 pd key t;
#N canvas 1271 0 1276 1451 mixer 0;
#X obj 24 21 catch~ \$101-output;
#X obj 25 254 outlet~;
#X obj 32 48 catch~ \$102-output;
#X obj 42 77 catch~ \$103-output;
#X obj 50 107 catch~ \$104-output;
#X obj 57 138 catch~ \$105-output;
#X obj 63 167 catch~ \$106-output;
#X connect 0 0 1 0;
#X connect 2 0 1 0;
#X connect 3 0 1 0;
#X connect 4 0 1 0;
#X connect 5 0 1 0;
#X connect 6 0 1 0;
#X restore 986 37 pd mixer receiver;
#X obj 100 334 throw~ \$101-output;
#N canvas 1223 103 1276 1451 rev1 0;
#X obj 58 187 outlet~;
#X obj 58 13 catch~ \$201-output;
#X obj 64 42 catch~ \$202-output;
#X obj 72 71 catch~ \$203-output;
#X obj 76 101 catch~ \$204-output;
#X obj 80 129 catch~ \$205-output;
#X obj 87 157 catch~ \$206-output;
#X connect 1 0 0 0;
#X connect 2 0 0 0;
#X connect 3 0 0 0;
#X connect 4 0 0 0;
#X connect 5 0 0 0;
#X connect 6 0 0 0;
#X restore 1023 69 pd rev1 receiver;
#X obj 126 236 throw~ \$201-outpt;
#N canvas 190 190 450 300 key 0;
#X obj 65 59 key;
#X obj 65 88 select 97;
#X obj 65 117 outlet;
#X connect 0 0 1 0;
#X connect 1 0 2 0;
#X restore 100 50 pd key a;
#X text 97 18 Bass drum;
#N canvas 228 228 450 300 key 0;
#X obj 8 9 key;
#X obj 8 44 select 115;
#X obj 8 73 outlet;
#X connect 0 0 1 0;
#X connect 1 0 2 0;
#X restore 555 47 pd key s;
#X obj 571 213 throw~ \$202-output;
#X obj 556 311 throw~ \$102-output;
#X text 550 15 Snare Drum;
#N canvas 304 304 450 300 key 0;
#X obj 11 7 key;
#X obj 11 36 select 100;
#X obj 11 65 outlet;
#X connect 0 0 1 0;
#X connect 1 0 2 0;
#X restore 98 399 pd key d;
#X obj 114 578 throw~ \$203-output;
#X obj 98 663 throw~ \$103-output;
#X text 96 371 UFO;
#N canvas 893 319 450 300 key 0;
#X obj 12 7 key;
#X obj 12 36 select 102;
#X obj 12 65 outlet;
#X connect 0 0 1 0;
#X connect 1 0 2 0;
#X restore 556 409 pd key f;
#X obj 567 567 throw~ \$204-output;
#X obj 557 655 throw~ \$104-output;
#X text 555 377 Laser;
#N canvas 38 38 450 300 key 0;
#X obj 108 56 key;
#X obj 108 114 outlet;
#X obj 108 85 select 103;
#X connect 0 0 2 0;
#X connect 2 0 1 0;
#X restore 96 753 pd key g;
#X obj 103 922 throw~ \$205-output;
#X obj 97 1021 throw~ \$105-output;
#X text 93 726 Clap;
#N canvas 740 109 904 734 bongo 0;
#X msg 28 438 0.2 0 \, 0 1 0;
#X obj 28 462 vline~;
#X msg 539 443 0.05 4 \, 0 100 4;
#X msg 154 479 250 0 \, 120 10 0;
#X msg 328 390 1 4 \, 0.9 65 4 \, 0 360 69;
#X obj 154 503 vline~;
#X obj 328 414 vline~;
#X obj 539 469 vline~;
#X obj 154 527 osc~;
#X obj 328 438 pow~ 1.5;
#X obj 154 588 *~;
#X obj 539 649 *~;
#X obj 465 500 noise~;
#X obj 465 524 lop~ 300;
#X obj 186 297 inlet;
#X obj 329 654 +~;
#X obj 329 683 outlet~;
#X connect 0 0 1 0;
#X connect 2 0 7 0;
#X connect 3 0 5 0;
#X connect 4 0 6 0;
#X connect 5 0 8 0;
#X connect 6 0 9 0;
#X connect 7 0 11 1;
#X connect 8 0 10 0;
#X connect 9 0 10 1;
#X connect 10 0 15 0;
#X connect 11 0 15 1;
#X connect 12 0 13 0;
#X connect 13 0 11 0;
#X connect 14 0 0 0;
#X connect 14 0 3 0;
#X connect 14 0 4 0;
#X connect 14 0 2 0;
#X connect 15 0 16 0;
#X restore 561 882 pd bongo;
#X obj 561 853 bng 24 250 50 0 empty empty empty 0 -12 0 16 #fcfcfc #000000 #000000;
#X obj 561 789 tgl 24 0 empty empty empty 0 -12 0 16 #fcfcfc #000000 #000000 0 1;
#X obj 561 818 metro 500;
#X obj 560 966 *~;
#X obj 590 938 hsl 204 24 0 1 0 0 empty empty empty -2 -12 0 16 #fcfcfc #000000 #000000 0 1;
#N canvas 114 114 450 300 key 0;
#X obj 12 7 key;
#X obj 12 36 select 121;
#X obj 12 65 outlet;
#X connect 0 0 1 0;
#X connect 1 0 2 0;
#X restore 471 819 pd key y;
#N canvas 152 152 450 300 key 0;
#X obj 181 81 key;
#X obj 181 110 select 104;
#X obj 181 139 outlet;
#X connect 0 0 1 0;
#X connect 1 0 2 0;
#X restore 561 758 pd key h;
#X obj 576 911 throw~ \$206-output;
#X obj 560 995 throw~ \$106-output;
#X text 561 726 Bongo;
#X text 985 10 Mixer;
#X obj 986 269 throw~ \$301-output;
#X obj 101 1129 catch~ \$301-output;
#X text 96 1101 Analog;
#N canvas 228 228 2560 1464 delay 0;
#X obj 15 7 inlet~;
#X obj 16 43 *~ 1;
#X obj 17 87 *~ 1;
#X obj 86 199 delread~ \$0-delay 50;
#X obj 104 67 delwrite~ \$0-delay 500;
#X obj 18 235 *~ 0.6;
#X obj 18 309 *~ 1;
#X obj 20 277 *~ 1;
#X obj 107 302 +~;
#X floatatom 86 165 5 0 0 0 - - - 0;
#X obj 107 331 outlet~;
#X connect 0 0 1 0;
#X connect 1 0 4 0;
#X connect 1 0 2 0;
#X connect 2 0 5 0;
#X connect 3 0 5 0;
#X connect 5 0 7 0;
#X connect 5 0 6 0;
#X connect 6 0 8 1;
#X connect 7 0 8 0;
#X connect 8 0 10 0;
#X connect 9 0 3 0;
#X restore 984 477 pd delay;
#X obj 984 443 tgl 24 0 empty empty empty 0 -12 0 16 #fcfcfc #000000 #000000 0 1;
#N canvas 1123 500 450 300 key 0;
#X obj 14 7 key;
#X obj 14 36 select 117;
#X obj 14 65 outlet;
#X connect 0 0 1 0;
#X connect 1 0 2 0;
#X restore 984 409 pd key u;
#X obj 984 506 throw~ 401-output;
#X obj 113 1161 catch~ \$401-output;
#X text 982 382 Delay;
#X connect 0 0 9 0;
#X connect 0 0 50 0;
#X connect 1 0 0 1;
#X connect 2 0 0 0;
#X connect 3 0 4 0;
#X connect 4 0 2 0;
#X connect 5 0 6 0;
#X connect 5 0 6 1;
#X connect 7 0 11 0;
#X connect 8 0 9 1;
#X connect 9 0 48 0;
#X connect 10 0 11 1;
#X connect 11 0 40 1;
#X connect 12 0 7 1;
#X connect 13 0 18 0;
#X connect 13 0 54 0;
#X connect 14 0 13 0;
#X connect 15 0 16 0;
#X connect 16 0 14 0;
#X connect 17 0 18 1;
#X connect 18 0 55 0;
#X connect 19 0 13 1;
#X connect 20 0 26 0;
#X connect 20 0 58 0;
#X connect 21 0 20 1;
#X connect 22 0 20 0;
#X connect 23 0 24 0;
#X connect 24 0 22 0;
#X connect 25 0 26 1;
#X connect 26 0 59 0;
#X connect 27 0 31 0;
#X connect 27 0 62 0;
#X connect 28 0 27 0;
#X connect 29 0 30 0;
#X connect 30 0 28 0;
#X connect 31 0 63 0;
#X connect 32 0 31 1;
#X connect 33 0 38 0;
#X connect 33 0 66 0;
#X connect 34 0 33 0;
#X connect 34 0 33 1;
#X connect 35 0 36 0;
#X connect 36 0 34 0;
#X connect 37 0 33 2;
#X connect 38 0 67 0;
#X connect 39 0 38 1;
#X connect 40 0 81 0;
#X connect 41 0 40 2;
#X connect 42 0 2 0;
#X connect 43 0 14 0;
#X connect 44 0 22 0;
#X connect 45 0 28 0;
#X connect 46 0 34 0;
#X connect 47 0 40 0;
#X connect 49 0 7 0;
#X connect 51 0 3 0;
#X connect 53 0 15 0;
#X connect 57 0 23 0;
#X connect 61 0 29 0;
#X connect 65 0 35 0;
#X connect 69 0 73 0;
#X connect 69 0 77 0;
#X connect 70 0 69 0;
#X connect 71 0 72 0;
#X connect 72 0 70 0;
#X connect 73 0 78 0;
#X connect 74 0 73 1;
#X connect 75 0 70 0;
#X connect 76 0 71 0;
#X connect 82 0 5 0;
#X connect 84 0 87 0;
#X connect 85 0 84 0;
#X connect 86 0 85 0;
#X connect 88 0 5 0;
