#N canvas -8 0 1920 966 16;
#N canvas 958 241 915 617 bass_drum 0;
#X obj 87 155 line~;
#X obj 87 190 sqrt~;
#X obj 87 248 -~ 0.25;
#X obj 87 277 cos~;
#X obj 87 219 *~ 20;
#X obj 87 314 lop~ 1000;
#X obj 156 356 *~;
#X obj 174 204 phasor~ 65;
#X msg 88 121 0 \, 1 350 1;
#X obj 174 233 lop~ 100;
#X obj 174 262 env~ 250 50;
#X obj 82 48 inlet;
#X obj 240 57 inlet;
#X obj 45 101 bng 24 250 50 0 empty empty empty 0 -12 0 16 #fcfcfc #000000 #000000;
#X floatatom 277 107 5 0 0 0 - - - 0;
#X obj 148 429 outlet~;
#X connect 0 0 1 0;
#X connect 1 0 4 0;
#X connect 2 0 3 0;
#X connect 3 0 5 0;
#X connect 4 0 2 0;
#X connect 5 0 6 0;
#X connect 6 0 15 0;
#X connect 7 0 9 0;
#X connect 8 0 0 0;
#X connect 9 0 10 0;
#X connect 10 0 6 1;
#X connect 11 0 8 0;
#X connect 11 0 13 0;
#X connect 12 0 7 0;
#X connect 12 0 14 0;
#X restore 52 196 pd bass_drum;
#X obj 167 140 hsl 204 24 0 127 0 0 empty empty empty -2 -12 0 16 #fcfcfc #000000 #000000 0 1;
#X obj 53 156 bng 24 250 50 0 empty empty empty 0 -12 0 16 #fcfcfc #000000 #000000;
#X obj 52 85 tgl 24 0 empty empty empty 0 -12 0 16 #fcfcfc #000000 #000000 0 1;
#X obj 52 114 metro 500;
#X obj 814 857 /~ 5;
#X obj 814 897 dac~ 1 2;
#X obj 798 460 rev1~;
#X obj 86 250 hsl 204 24 0 1 0 0 empty empty empty -2 -12 0 16 #fcfcfc #000000 #000000 0 1;
#X obj 73 301 *~;
#X obj 877 477 hsl 204 24 0 1 0 0 empty empty empty -2 -12 0 16 #fcfcfc #000000 #000000 0 1;
#X obj 799 494 *~;
#X obj 818 416 tgl 24 0 empty empty empty 0 -12 0 16 #fcfcfc #000000 #000000 0 1;
#N canvas 192 192 643 680 snare_drum 0;
#X obj 200 144 t b b;
#X obj 197 359 +~;
#X obj 248 204 line~;
#X obj 368 188 noise~;
#X obj 368 217 hip~ 3000;
#X obj 248 232 pow~ 4;
#X obj 245 323 *~;
#X msg 247 175 1 \, 0 240;
#X obj 233 275 lop~ 2000;
#X obj 371 294 bp~ 1 2.5;
#X obj 191 422 outlet~;
#X obj 197 94 inlet;
#X obj 482 248 inlet;
#X connect 0 1 7 0;
#X connect 1 0 10 0;
#X connect 2 0 5 0;
#X connect 3 0 4 0;
#X connect 4 0 9 0;
#X connect 5 0 8 0;
#X connect 6 0 1 1;
#X connect 7 0 2 0;
#X connect 8 0 6 0;
#X connect 9 0 6 1;
#X connect 11 0 0 0;
#X connect 12 0 9 1;
#X restore 401 203 pd snare_drum;
#X obj 399 135 bng 24 250 50 0 empty empty empty 0 -12 0 16 #fcfcfc #000000 #000000;
#X obj 398 64 tgl 24 0 empty empty empty 0 -12 0 16 #fcfcfc #000000 #000000 0 1;
#X obj 398 93 metro 500;
#X obj 434 262 hsl 204 24 0 1 0 0 empty empty empty -2 -12 0 16 #fcfcfc #000000 #000000 0 1;
#X obj 405 313 *~;
#X obj 531 159 hsl 204 24 1000 6000 0 0 empty empty empty -2 -12 0 16 #fcfcfc #000000 #000000 0 1;
#N canvas 952 0 958 956 UFO_sound 0;
#X obj 87 161 line~;
#X obj 87 190 sqrt~;
#X obj 87 248 -~ 0.25;
#X obj 87 277 cos~;
#X obj 86 323 lop~ 1000;
#X msg 87 132 0 \, 1 400;
#X obj 86 406 *~;
#X obj 213 273 mtof;
#X obj 87 219 *~ 120;
#X obj 213 360 lop~ 2000;
#X obj 213 302 phasor~;
#X obj 213 331 expr~ ($v1 > 0.5) * 1.6 - 1;
#X obj 88 64 inlet;
#X obj 222 213 inlet;
#X obj 86 435 outlet~;
#X connect 0 0 1 0;
#X connect 1 0 8 0;
#X connect 2 0 3 0;
#X connect 3 0 4 0;
#X connect 4 0 6 0;
#X connect 5 0 0 0;
#X connect 6 0 14 0;
#X connect 7 0 10 0;
#X connect 8 0 2 0;
#X connect 9 0 6 1;
#X connect 10 0 11 0;
#X connect 11 0 9 0;
#X connect 12 0 5 0;
#X connect 13 0 7 0;
#X restore 744 240 pd UFO_sound;
#X obj 864 168 hsl 204 24 100 150 0 0 empty empty empty -2 -12 0 16 #fcfcfc #000000 #000000 0 1;
#X obj 762 152 bng 24 250 50 0 empty empty empty 0 -12 0 16 #fcfcfc #000000 #000000;
#X obj 761 81 tgl 24 0 empty empty empty 0 -12 0 16 #fcfcfc #000000 #000000 0 1;
#X obj 761 110 metro 500;
#X obj 809 287 hsl 204 24 0 1 0 0 empty empty empty -2 -12 0 16 #fcfcfc #000000 #000000 0 1;
#X obj 780 338 *~;
#N canvas 224 224 450 431 laser_sound 0;
#X msg 87 132 0 \, 1 200;
#X obj 87 161 line~;
#X obj 87 190 sqrt~;
#X obj 87 248 -~ 0.25;
#X obj 87 277 cos~;
#X obj 87 219 *~ 120;
#X obj 79 76 inlet;
#X obj 87 306 outlet~;
#X connect 0 0 1 0;
#X connect 1 0 2 0;
#X connect 2 0 5 0;
#X connect 3 0 4 0;
#X connect 4 0 7 0;
#X connect 5 0 3 0;
#X connect 6 0 0 0;
#X restore 1116 218 pd laser_sound;
#X obj 1116 163 bng 24 250 50 0 empty empty empty 0 -12 0 16 #fcfcfc #000000 #000000;
#X obj 1115 92 tgl 24 0 empty empty empty 0 -12 0 16 #fcfcfc #000000 #000000 0 1;
#X obj 1115 121 metro 500;
#X obj 1096 349 *~;
#X obj 1122 273 hsl 204 24 0 1 0 0 empty empty empty -2 -12 0 16 #fcfcfc #000000 #000000 0 1;
#N canvas 64 64 827 814 clap 0;
#X msg 78 362 1 0 \, 0 11 0 \, 1 0 11 \, 0 12 11 \, 1 0 23 \, 0 8 23 \, 1 0 31 \, 0 50 31, f 62;
#X obj 77 395 vline~;
#X obj 76 433 pow~ 3;
#X obj 158 433 noise~;
#X obj 78 476 *~;
#X obj 78 550 *~ 0.7;
#X obj 115 589 bp~ 1000 5;
#X obj 82 635 lop~ 3000;
#X msg 231 407 1 36 \, 0 440 36;
#X obj 233 456 vline~;
#X obj 221 554 *~;
#X obj 226 605 bp~ 1100 3;
#X obj 230 506 pow~ 1.8;
#X obj 167 667 *~ 0.5;
#X obj 398 584 mtof;
#X obj 398 671 lop~ 2000;
#X obj 398 613 phasor~;
#X obj 78 284 inlet;
#X obj 429 488 inlet;
#X obj 167 696 outlet~;
#X obj 398 642 expr~ ($v1 > 0.5) * 1.6 - 1;
#X obj 142 285 inlet;
#X connect 0 0 1 0;
#X connect 1 0 2 0;
#X connect 2 0 4 0;
#X connect 3 0 4 1;
#X connect 3 0 10 1;
#X connect 4 0 5 0;
#X connect 5 0 6 0;
#X connect 5 0 7 0;
#X connect 6 0 7 0;
#X connect 7 0 13 0;
#X connect 8 0 9 0;
#X connect 9 0 12 0;
#X connect 10 0 11 0;
#X connect 11 0 13 0;
#X connect 12 0 10 0;
#X connect 13 0 19 0;
#X connect 14 0 16 0;
#X connect 15 0 10 1;
#X connect 16 0 20 0;
#X connect 17 0 0 0;
#X connect 18 0 14 0;
#X connect 20 0 15 0;
#X connect 21 0 8 0;
#X restore 1335 202 pd clap;
#X obj 1333 146 bng 24 250 50 0 empty empty empty 0 -12 0 16 #fcfcfc #000000 #000000;
#X obj 1332 75 tgl 24 0 empty empty empty 0 -12 0 16 #fcfcfc #000000 #000000 0 1;
#X obj 1332 104 metro 500;
#X obj 1413 139 hsl 204 24 0 100 0 0 empty empty empty -2 -12 0 16 #fcfcfc #000000 #000000 0 1;
#X obj 1350 330 *~;
#X obj 1378 275 hsl 204 24 0 1 0 0 empty empty empty -2 -12 0 16 #fcfcfc #000000 #000000 0 1;
#N canvas 984 301 766 525 mixer 0;
#X obj 504 93 inlet;
#X obj 155 171 *~;
#X obj 338 268 *~;
#X obj 314 418 outlet~;
#X obj 180 103 inlet~;
#X obj 342 92 inlet~;
#X obj 478 218 expr 1-$f1;
#X obj 299 338 +~;
#X connect 0 0 1 1;
#X connect 0 0 6 0;
#X connect 1 0 7 0;
#X connect 2 0 7 1;
#X connect 4 0 1 0;
#X connect 5 0 2 0;
#X connect 6 0 2 1;
#X connect 7 0 3 0;
#X restore 795 775 pd mixer;
#X obj 875 736 hsl 204 24 0 1 0 0 empty empty empty -2 -12 0 16 #fcfcfc #000000 #000000 0 1;
#N canvas 740 109 904 734 bongo 0;
#X msg 28 438 0.2 0 \, 0 1 0;
#X obj 28 462 vline~;
#X msg 539 443 0.05 4 \, 0 100 4;
#X msg 154 479 250 0 \, 120 10 0;
#X msg 328 390 1 4 \, 0.9 65 4 \, 0 360 69;
#X obj 154 503 vline~;
#X obj 328 414 vline~;
#X obj 539 469 vline~;
#X obj 154 527 osc~;
#X obj 328 438 pow~ 1.5;
#X obj 154 588 *~;
#X obj 539 649 *~;
#X obj 465 500 noise~;
#X obj 465 524 lop~ 300;
#X obj 186 297 inlet;
#X obj 329 654 +~;
#X obj 329 683 outlet~;
#X connect 0 0 1 0;
#X connect 2 0 7 0;
#X connect 3 0 5 0;
#X connect 4 0 6 0;
#X connect 5 0 8 0;
#X connect 6 0 9 0;
#X connect 7 0 11 1;
#X connect 8 0 10 0;
#X connect 9 0 10 1;
#X connect 10 0 15 0;
#X connect 11 0 15 1;
#X connect 12 0 13 0;
#X connect 13 0 11 0;
#X connect 14 0 0 0;
#X connect 14 0 3 0;
#X connect 14 0 4 0;
#X connect 14 0 2 0;
#X connect 15 0 16 0;
#X restore 1665 209 pd bongo;
#X obj 1664 150 bng 24 250 50 0 empty empty empty 0 -12 0 16 #fcfcfc #000000 #000000;
#X obj 1663 79 tgl 24 0 empty empty empty 0 -12 0 16 #fcfcfc #000000 #000000 0 1;
#X obj 1663 108 metro 500;
#X obj 1582 381 *~;
#X obj 1610 326 hsl 204 24 0 1 0 0 empty empty empty -2 -12 0 16 #fcfcfc #000000 #000000 0 1;
#X obj 1460 603 delwrite~ \$0-delay 1000;
#X obj 1331 709 delread~ \$0-delay 500;
#X msg 1289 651 500;
#X msg 1345 658 1000;
#X obj 1462 528 tgl 24 0 empty empty empty 0 -12 0 16 #fcfcfc #000000 #000000 0 1;
#X connect 0 0 7 0;
#X connect 0 0 9 0;
#X connect 1 0 0 1;
#X connect 2 0 0 0;
#X connect 3 0 4 0;
#X connect 4 0 2 0;
#X connect 5 0 6 0;
#X connect 5 0 6 1;
#X connect 7 0 11 0;
#X connect 8 0 9 1;
#X connect 9 0 40 0;
#X connect 10 0 11 1;
#X connect 11 0 40 1;
#X connect 12 0 7 1;
#X connect 13 0 18 0;
#X connect 13 0 7 0;
#X connect 14 0 13 0;
#X connect 15 0 16 0;
#X connect 16 0 14 0;
#X connect 17 0 18 1;
#X connect 18 0 40 0;
#X connect 19 0 13 1;
#X connect 20 0 26 0;
#X connect 20 0 7 0;
#X connect 21 0 20 1;
#X connect 22 0 20 0;
#X connect 23 0 24 0;
#X connect 24 0 22 0;
#X connect 25 0 26 1;
#X connect 26 0 40 0;
#X connect 27 0 7 0;
#X connect 27 0 31 0;
#X connect 28 0 27 0;
#X connect 29 0 30 0;
#X connect 30 0 28 0;
#X connect 31 0 40 0;
#X connect 32 0 31 1;
#X connect 33 0 38 0;
#X connect 33 0 7 0;
#X connect 33 0 52 0;
#X connect 34 0 33 0;
#X connect 34 0 33 1;
#X connect 35 0 36 0;
#X connect 36 0 34 0;
#X connect 37 0 33 2;
#X connect 38 0 40 0;
#X connect 39 0 38 1;
#X connect 40 0 5 0;
#X connect 41 0 40 2;
#X connect 42 0 7 0;
#X connect 42 0 46 0;
#X connect 43 0 42 0;
#X connect 44 0 45 0;
#X connect 45 0 43 0;
#X connect 46 0 40 0;
#X connect 47 0 46 1;
#X connect 49 0 5 0;
#X connect 50 0 49 0;
#X connect 51 0 49 0;
#X connect 52 0 48 0;
