#N canvas 374 260 749 550 16;
#X obj 80 58 bng 24 250 50 0 empty empty empty 0 -12 0 16 #fcfcfc #000000 #000000;
#X obj 80 87 t b b;
#X obj 78 253 +~;
#X obj 128 147 line~;
#X obj 242 122 noise~;
#X obj 32 420 catch~ \$0-output;
#X obj 32 460 /~ 5;
#X obj 32 500 dac~ 1 2;
#X obj 237 418 tgl 24 0 empty empty empty 0 -12 0 16 #fcfcfc #000000 #000000 0 1;
#X obj 237 447 metro 200;
#X obj 78 296 throw~ \$0-output;
#X obj 242 151 hip~ 3000;
#X obj 128 175 pow~ 4;
#X msg 127 118 1 \, 0 240;
#X obj 126 217 *~;
#X obj 243 180 bp~ 5000 2.5;
#X connect 0 0 1 0;
#X connect 1 1 13 0;
#X connect 2 0 10 0;
#X connect 3 0 12 0;
#X connect 4 0 11 0;
#X connect 5 0 6 0;
#X connect 6 0 7 0;
#X connect 6 0 7 1;
#X connect 8 0 9 0;
#X connect 11 0 15 0;
#X connect 12 0 14 0;
#X connect 13 0 3 0;
#X connect 14 0 2 1;
#X connect 15 0 14 1;
