#N canvas 451 0 1241 956 16;
#X obj 72 302 bng 24 250 50 0 empty empty empty 0 -12 0 16 #fcfcfc #000000 #000000;
#X obj 72 331 t b b;
#X obj 69 546 +~;
#X obj 120 391 line~;
#X obj 242 423 noise~;
#X obj 24 664 catch~ \$0-output;
#X obj 24 704 /~ 5;
#X obj 24 744 dac~ 1 2;
#X obj 229 662 tgl 24 0 empty empty empty 0 -12 0 16 #fcfcfc #000000 #000000 0 1;
#X obj 229 691 metro 200;
#X obj 69 589 throw~ \$0-output;
#X obj 242 452 hip~ 3000;
#X obj 120 419 pow~ 4;
#X obj 117 510 *~;
#X msg 119 362 1 \, 0 240;
#X obj 105 462 lop~ 2000;
#X obj 66 222 tgl 24 0 empty empty empty 0 -12 0 16 #fcfcfc #000000 #000000 0 1;
#X obj 143 188 hsl 204 24 100 400 0 0 empty empty empty -2 -12 0 16 #fcfcfc #000000 #000000 0 1;
#X obj 66 251 metro \$2;
#X obj 355 376 hsl 204 24 1000 6000 0 0 empty empty empty -2 -12 0 16 #fcfcfc #000000 #000000 0 1;
#X obj 243 481 bp~ 1 2.5;
#X connect 0 0 1 0;
#X connect 1 1 14 0;
#X connect 2 0 10 0;
#X connect 3 0 12 0;
#X connect 4 0 11 0;
#X connect 5 0 6 0;
#X connect 6 0 7 0;
#X connect 6 0 7 1;
#X connect 8 0 9 0;
#X connect 11 0 20 0;
#X connect 12 0 15 0;
#X connect 13 0 2 1;
#X connect 14 0 3 0;
#X connect 15 0 13 0;
#X connect 16 0 18 0;
#X connect 17 0 18 1;
#X connect 18 0 0 0;
#X connect 19 0 20 1;
#X connect 20 0 13 1;
