#N canvas 200 100 450 300 10;
#X obj 100 100 osc~ 440;
#X obj 100 200 dac~;
#X obj 100 150 vline~;
#X msg 100 50 0, 1 50, 0 1000;
#X bng 100 25 15 250 50 0 empty empty empty 17 7 0 10 -262144 -1 -1;
#X connect 0 0 2 0;
#X connect 2 0 1 0;
#X connect 3 0 2 0;
#X connect 4 0 3 0;
