#N canvas 0 0 450 300 10;
#X obj 100 150 osc~ 440;
#X obj 100 200 vcf~ 800 1;
#X obj 100 250 *~;
#X obj 100 300 dac~;
#X obj 50 100 hslider 128 15 0 127 0 0 empty empty empty 0 -8 0 10 -204800 -1 -1 5000 1;
#X obj 100 100 osc~ 6;
#X obj 100 125 *~ 50;
#X connect 0 0 1 0;
#X connect 1 0 2 0;
#X connect 2 0 3 0;
#X connect 4 0 2 1;
#X connect 5 0 6 0;
#X connect 6 0 0 0;
