#N canvas 0 0 450 300 10;
#X obj 100 50 osc~ 440;
#X obj 100 100 *~;
#X obj 100 150 vcf~ 600 1;
#X obj 100 200 *~;
#X obj 100 250 dac~;
#X obj 50 20 hslider 128 15 100 8000 0 0 empty empty frequency 0 -8 0 10 -204800 -1 -1 440 1;
#X obj 150 20 hslider 128 15 0 100 0 0 empty empty vibrato_depth 0 -8 0 10 -204800 -1 -1 5 1;
#X obj 150 50 osc~ 5;
#X obj 150 75 *~;
#X obj 100 125 vline~;
#X msg 50 100 0, 1 100, 0.5 200;
#X connect 0 0 1 0;
#X connect 1 0 2 0;
#X connect 2 0 3 0;
#X connect 3 0 4 0;
#X connect 5 0 0 0;
#X connect 7 0 8 0;
#X connect 8 0 1 1;
#X connect 9 0 3 1;
#X connect 10 0 9 0;
#X connect 6 0 7 0;
