#N canvas 1271 0 1276 1451 16;
#X obj 24 510 catch~ \$0-output;
#X obj 24 550 /~ 5;
#X obj 24 590 dac~ 1 2;
#X obj 229 508 tgl 24 0 empty empty empty 0 -12 0 16 #fcfcfc #000000 #000000 0 1;
#X obj 229 537 metro 200;
#X obj 87 103 bng 24 250 50 0 empty empty empty 0 -12 0 16 #fcfcfc #000000 #000000;
#X obj 87 161 line~;
#X obj 87 190 sqrt~;
#X obj 87 248 -~ 0.25;
#X obj 87 277 cos~;
#X obj 85 444 throw~ \$0-output;
#X obj 86 323 lop~ 1000;
#X msg 87 132 0 \, 1 400;
#X obj 86 406 *~;
#X obj 321 241 hsl 204 24 100 150 0 0 empty empty empty -2 -12 0 16 #fcfcfc #000000 #000000 0 1;
#X obj 318 270 mtof;
#X obj 87 219 *~ 120;
#X obj 318 357 lop~ 2000;
#X obj 318 299 phasor~;
#X obj 318 328 expr~ ($v1 > 0.5) * 1.6 - 1;
#X connect 0 0 1 0;
#X connect 1 0 2 0;
#X connect 1 0 2 1;
#X connect 3 0 4 0;
#X connect 5 0 12 0;
#X connect 6 0 7 0;
#X connect 7 0 16 0;
#X connect 8 0 9 0;
#X connect 9 0 11 0;
#X connect 11 0 13 0;
#X connect 12 0 6 0;
#X connect 13 0 10 0;
#X connect 14 0 15 0;
#X connect 15 0 18 0;
#X connect 16 0 8 0;
#X connect 17 0 13 1;
#X connect 18 0 19 0;
#X connect 19 0 17 0;
